<?xml version="1.0" encoding="utf-8"?>
<!-- Generator: Adobe Illustrator 22.0.1, SVG Export Plug-In . SVG Version: 6.00 Build 0)  -->
<svg version="1.1" id="Capa_1" xmlns="http://www.w3.org/2000/svg" xmlns:xlink="http://www.w3.org/1999/xlink" x="0px" y="0px"
	 viewBox="0 0 1232.8 350.3" style="enable-background:new 0 0 1232.8 350.3;" xml:space="preserve">
<style type="text/css">
	.st0{fill:#1F262D;}
	.st1{clip-path:url(#SVGID_2_);fill:url(#SVGID_3_);}
	.st2{clip-path:url(#SVGID_5_);fill:url(#SVGID_6_);}
	.st3{clip-path:url(#SVGID_8_);fill:url(#SVGID_9_);}
	.st4{clip-path:url(#SVGID_11_);fill:url(#SVGID_12_);}
	.st5{clip-path:url(#SVGID_14_);fill:url(#SVGID_15_);}
	.st6{clip-path:url(#SVGID_17_);fill:url(#SVGID_18_);}
	.st7{clip-path:url(#SVGID_20_);fill:url(#SVGID_21_);}
	.st8{clip-path:url(#SVGID_23_);fill:url(#SVGID_24_);}
	.st9{clip-path:url(#SVGID_26_);fill:url(#SVGID_27_);}
	.st10{clip-path:url(#SVGID_29_);fill:url(#SVGID_30_);}
	.st11{clip-path:url(#SVGID_32_);fill:url(#SVGID_33_);}
	.st12{clip-path:url(#SVGID_35_);fill:url(#SVGID_36_);}
	.st13{clip-path:url(#SVGID_38_);fill:url(#SVGID_39_);}
	.st14{clip-path:url(#SVGID_41_);fill:url(#SVGID_42_);}
	.st15{clip-path:url(#SVGID_44_);fill:url(#SVGID_45_);}
	.st16{clip-path:url(#SVGID_47_);fill:url(#SVGID_48_);}
</style>
<g>
	<g>
		<path class="st0" d="M501.7,173.9c0,22.8-18.4,42.1-40.2,42.1c-8.6,0-18.4-2-27.7-9.6v8.5H418V105.6h15.7v35.5
			c7.3-5.7,17.1-8.5,25.2-8.5C483.4,132.6,501.7,150.9,501.7,173.9z M485.1,174.1c0-13.7-12-25.4-25.7-25.4
			c-13.9,0-25.2,11.8-25.2,25.7c0,14.2,11.3,25.2,25.2,25.2C473.6,199.6,485.1,188.1,485.1,174.1z"/>
		<path class="st0" d="M533.6,214.8H518l-0.3-109.2h15.9L533.6,214.8L533.6,214.8z"/>
		<path class="st0" d="M635.8,173.2c0,22.8-18.3,41.6-42.1,41.6c-23.5,0-42.3-18.9-42.3-41.4c0-22.7,19.1-40.9,42.6-40.9
			C617.2,132.5,635.8,150.5,635.8,173.2z M619.2,173.2c0-13.5-11.7-24.9-25.5-24.9c-14.2,0-25.5,11.3-25.5,25
			c0,14,11.3,25.5,25.5,25.5C608.2,198.9,619.2,186.9,619.2,173.2z"/>
		<path class="st0" d="M692.6,215.6c-23.5,0-42.3-17.8-42.3-41.6c0-23.7,16.4-41.6,41.8-41.6c13.9,0,26.5,5.6,37.9,23l-12.9,8.3
			c-8.3-10-14.7-15.2-24.7-15.2c-14.9,0-25.4,10.5-25.4,25.4c0,14,11.2,25.4,24.2,25.4c7.4,0,15.9-1.9,25.7-15l13.2,8.1l-1.9,2.9
			C719.6,208.7,707.5,215.6,692.6,215.6z"/>
		<path class="st0" d="M763.9,105.6v58l31.8-31.1H817l-42.6,41.1l45.1,41.3h-22.2l-33.6-30.4v30.4h-15.6V105.6H763.9z"/>
		<path class="st0" d="M892.1,140.9v-35.3h15.7v109.2h-15.7v-8.6c-9.1,7.4-19.1,9.5-27.4,9.5c-22,0-40.6-19.1-40.6-41.9
			c0-23.2,18.6-41.3,42.6-41.3C875,132.5,885,135.2,892.1,140.9z M891.8,174.1c0-13.7-11.3-25.5-25.4-25.5
			c-13.7,0-25.5,11.7-25.5,25.5c0,13.9,11.3,25.5,25.5,25.5C880.4,199.6,891.8,188.3,891.8,174.1z"/>
		<path class="st0" d="M943.5,182.3c3.4,11.2,11.2,17.2,24,17.2c10.3,0,17.1-3.5,25-12.8l12.7,7.4c-7.8,13.4-21.6,21.5-36.9,21.5
			c-24.3,0-42.6-17.4-42.6-41.6c0-23.5,18.1-41.6,41.6-41.6c23.8,0,40.4,18.1,40.4,44.1l-0.3,5.7h-63.9V182.3z M944,165.9h45.5
			c-3-11.8-10.8-17.1-22-17.1C956.3,148.9,948.1,154.6,944,165.9z"/>
		<path class="st0" d="M1131.2,144.8c4.4,7.1,5.1,18.1,5.1,28.9v5.4c0,1.7,0,3.4,0,5.1l-0.3,30.6h-16.1V169c0-13.5-5.2-20.5-15-20.5
			c-14.9,0-15.9,15.6-16.2,22.3c-0.2,1-0.2,2-0.3,2.7v41.3h-16.7l0.3-42.1c-0.2-17.4-5.6-24.2-14.5-24.2c-15.6,0-17.1,16.4-17.1,32
			c0,2,0.2,3.9,0.2,5.9v5.6v22.8h-16.2l0.3-82.3h15.9v3.4c4.9-3.4,10.5-3.4,16.7-3.4c7.4,0,15.4,1.4,22.8,10c6.3-7.8,14-10,24.7-10
			C1114.3,132.5,1125.4,136.2,1131.2,144.8z"/>
		<path class="st0" d="M1185.3,235.9c-4.6,4.7-13.2,8.8-25.2,8.8v-14.9c11.8-2,20.5-9.5,20.5-17.9c0-3-1.7-6.4-4.2-11.7
			c-1.5-3.2-3.4-7.1-5.4-12l-23.5-55.8h17.4l25.2,58.2c4.4-11.2,8.3-22.7,12-33c3.2-9.1,6.9-19.4,9.3-25.2h17.6l-23.2,63.6
			C1201,210.1,1195.6,225.1,1185.3,235.9z"/>
	</g>
	<g>
		<g>
			<g>
				<g>
					<defs>
						<path id="SVGID_1_" d="M141.4,322.6c0-5.4,2-10.8,6.1-14.9c4-4,9.2-6.2,14.9-6.2c5.6,0,10.9,2.2,14.9,6.2L174,311l3.3-3.3
							c8.2,8.2,8.2,21.5,0,29.7s-21.5,8.2-29.7,0C143.4,333.3,141.4,327.9,141.4,322.6z M174.1,322.6c0-3-1.1-6-3.4-8.3l0,0
							c-2.2-2.2-5.2-3.4-8.3-3.4s-6.1,1.2-8.3,3.4c-4.6,4.6-4.6,12,0,16.6s12,4.6,16.6,0C173,328.6,174.1,325.6,174.1,322.6z"/>
					</defs>
					<clipPath id="SVGID_2_">
						<use xlink:href="#SVGID_1_"  style="overflow:visible;"/>
					</clipPath>
					
						<linearGradient id="SVGID_3_" gradientUnits="userSpaceOnUse" x1="167.05" y1="202.2" x2="167.05" y2="655.2" gradientTransform="matrix(1 0 0 1 0 -248)">
						<stop  offset="0" style="stop-color:#30CEE7"/>
						<stop  offset="1" style="stop-color:#8265FC"/>
					</linearGradient>
					<polygon class="st1" points="170.6,407.2 -59.5,177.2 163.6,-45.8 393.6,184.2 					"/>
				</g>
			</g>
		</g>
		<g>
			<g>
				<g>
					<defs>
						<path id="SVGID_4_" d="M190.5,273.4c0-5.6,2.2-10.9,6.2-14.9c8.2-8.2,21.5-8.2,29.7,0l0,0c4,4,6.2,9.2,6.2,14.9
							s-2.2,10.9-6.2,14.9c-8.2,8.2-21.5,8.2-29.7,0C192.7,284.3,190.5,279,190.5,273.4z M223.3,273.4c0-3.1-1.2-6.1-3.4-8.3l0,0
							c-4.6-4.6-12-4.6-16.6,0c-2.2,2.2-3.4,5.2-3.4,8.3c0,3.1,1.2,6.1,3.4,8.3c4.6,4.6,12,4.6,16.6,0
							C222.1,279.5,223.3,276.6,223.3,273.4z"/>
					</defs>
					<clipPath id="SVGID_5_">
						<use xlink:href="#SVGID_4_"  style="overflow:visible;"/>
					</clipPath>
					
						<linearGradient id="SVGID_6_" gradientUnits="userSpaceOnUse" x1="167.05" y1="202.2" x2="167.05" y2="655.2" gradientTransform="matrix(1 0 0 1 0 -248)">
						<stop  offset="0" style="stop-color:#30CEE7"/>
						<stop  offset="1" style="stop-color:#8265FC"/>
					</linearGradient>
					<polygon class="st2" points="170.6,407.2 -59.5,177.2 163.6,-45.8 393.6,184.2 					"/>
				</g>
			</g>
		</g>
		<g>
			<g>
				<g>
					<defs>
						<path id="SVGID_7_" d="M239.7,224.3c0-5.6,2.2-10.9,6.2-14.9s9.2-6.2,14.9-6.2c5.6,0,10.8,2.2,14.8,6.1l0.1,0.1
							c4,4,6.2,9.2,6.2,14.9l0,0c0,5.6-2.2,10.9-6.2,14.9c-8.2,8.2-21.5,8.2-29.7,0C241.8,235.2,239.7,229.9,239.7,224.3z M269,216
							L269,216c-2.3-2.3-5.2-3.5-8.4-3.5c-3.1,0-6.1,1.2-8.3,3.4s-3.4,5.2-3.4,8.3s1.2,6.1,3.4,8.3c4.6,4.6,12,4.6,16.6,0
							c2.2-2.2,3.4-5.2,3.4-8.3C272.4,221.2,271.2,218.2,269,216z"/>
					</defs>
					<clipPath id="SVGID_8_">
						<use xlink:href="#SVGID_7_"  style="overflow:visible;"/>
					</clipPath>
					
						<linearGradient id="SVGID_9_" gradientUnits="userSpaceOnUse" x1="167.05" y1="202.2" x2="167.05" y2="655.2" gradientTransform="matrix(1 0 0 1 0 -248)">
						<stop  offset="0" style="stop-color:#30CEE7"/>
						<stop  offset="1" style="stop-color:#8265FC"/>
					</linearGradient>
					<polygon class="st3" points="170.6,407.2 -59.5,177.2 163.6,-45.8 393.6,184.2 					"/>
				</g>
			</g>
		</g>
		<g>
			<g>
				<g>
					<defs>
						<path id="SVGID_10_" d="M288.8,175.1c0-5.6,2.2-10.9,6.2-14.8c8.2-8.2,21.5-8.2,29.7,0l0,0c4,4,6.2,9.2,6.2,14.9
							c0,5.6-2.2,10.9-6.2,14.8c-8.2,8.2-21.5,8.2-29.7,0C291,186,288.8,180.7,288.8,175.1z M318.1,166.9c-4.6-4.6-12.1-4.6-16.6,0
							c-2.2,2.2-3.4,5.2-3.4,8.3s1.2,6.1,3.4,8.3c4.6,4.6,12,4.6,16.6,0c2.2-2.2,3.4-5.2,3.4-8.3C321.6,172,320.3,169.1,318.1,166.9
							L318.1,166.9z"/>
					</defs>
					<clipPath id="SVGID_11_">
						<use xlink:href="#SVGID_10_"  style="overflow:visible;"/>
					</clipPath>
					
						<linearGradient id="SVGID_12_" gradientUnits="userSpaceOnUse" x1="167.05" y1="202.2" x2="167.05" y2="655.2" gradientTransform="matrix(1 0 0 1 0 -248)">
						<stop  offset="0" style="stop-color:#30CEE7"/>
						<stop  offset="1" style="stop-color:#8265FC"/>
					</linearGradient>
					<polygon class="st4" points="170.6,407.2 -59.5,177.2 163.6,-45.8 393.6,184.2 					"/>
				</g>
			</g>
		</g>
		<g>
			<g>
				<g>
					<defs>
						<path id="SVGID_13_" d="M3.9,175.1c0-3,1.2-5.7,3.2-7.8c2.1-2.1,4.9-3.2,7.8-3.2c3,0,5.7,1.2,7.8,3.2l-3.3,3.3l3.3-3.3
							c2.1,2.1,3.2,4.9,3.2,7.8c0,3-1.2,5.7-3.2,7.8c-4.3,4.3-11.3,4.3-15.7,0C5,180.9,3.9,178.1,3.9,175.1z M16.8,175.1
							c0-0.3-0.1-0.8-0.5-1.3l0,0c-0.5-0.5-1-0.5-1.3-0.5s-0.8,0.1-1.3,0.5c-0.5,0.5-0.5,1-0.5,1.3s0.1,0.8,0.5,1.3
							c0.7,0.7,1.9,0.7,2.6,0C16.7,176,16.8,175.4,16.8,175.1z"/>
					</defs>
					<clipPath id="SVGID_14_">
						<use xlink:href="#SVGID_13_"  style="overflow:visible;"/>
					</clipPath>
					
						<linearGradient id="SVGID_15_" gradientUnits="userSpaceOnUse" x1="167.05" y1="202.2" x2="167.05" y2="655.2" gradientTransform="matrix(1 0 0 1 0 -248)">
						<stop  offset="0" style="stop-color:#30CEE7"/>
						<stop  offset="1" style="stop-color:#8265FC"/>
					</linearGradient>
					<polygon class="st5" points="170.6,407.2 -59.5,177.2 163.6,-45.8 393.6,184.2 					"/>
				</g>
			</g>
		</g>
		<g>
			<g>
				<g>
					<defs>
						<path id="SVGID_16_" d="M50.1,224.3c0-3.7,1.4-7.2,4.1-9.9l0.1-0.1c5.5-5.5,14.4-5.5,19.9,0l0,0c5.5,5.5,5.5,14.4,0,19.9
							l-0.1,0.1c-5.5,5.4-14.4,5.4-19.8-0.1C51.5,231.6,50.1,228,50.1,224.3z M60.8,220.9L60.8,220.9c-0.9,0.9-1.4,2.1-1.4,3.4
							c0,1.3,0.5,2.5,1.4,3.4c1.9,1.9,4.9,1.9,6.8,0l0.1-0.1c1.8-1.9,1.8-4.9,0-6.7C65.6,219,62.6,219,60.8,220.9z"/>
					</defs>
					<clipPath id="SVGID_17_">
						<use xlink:href="#SVGID_16_"  style="overflow:visible;"/>
					</clipPath>
					
						<linearGradient id="SVGID_18_" gradientUnits="userSpaceOnUse" x1="167.05" y1="202.2" x2="167.05" y2="655.2" gradientTransform="matrix(1 0 0 1 0 -248)">
						<stop  offset="0" style="stop-color:#30CEE7"/>
						<stop  offset="1" style="stop-color:#8265FC"/>
					</linearGradient>
					<polygon class="st6" points="170.6,407.2 -59.5,177.2 163.6,-45.8 393.6,184.2 					"/>
				</g>
			</g>
		</g>
		<g>
			<g>
				<g>
					<defs>
						<path id="SVGID_19_" d="M99.2,175.2c0-3.6,1.4-7.2,4.1-9.9c5.5-5.5,14.4-5.5,19.9,0s5.5,14.4,0,19.9s-14.4,5.5-19.9,0
							C100.6,182.4,99.2,178.8,99.2,175.2z M118.1,175.1c0-1.2-0.5-2.5-1.4-3.4c-1.9-1.9-4.9-1.9-6.8,0s-1.9,4.9,0,6.8
							c1.9,1.9,4.9,1.9,6.8,0C117.6,177.6,118.1,176.4,118.1,175.1z"/>
					</defs>
					<clipPath id="SVGID_20_">
						<use xlink:href="#SVGID_19_"  style="overflow:visible;"/>
					</clipPath>
					
						<linearGradient id="SVGID_21_" gradientUnits="userSpaceOnUse" x1="167.05" y1="202.2" x2="167.05" y2="655.2" gradientTransform="matrix(1 0 0 1 0 -248)">
						<stop  offset="0" style="stop-color:#30CEE7"/>
						<stop  offset="1" style="stop-color:#8265FC"/>
					</linearGradient>
					<polygon class="st7" points="170.6,407.2 -59.5,177.2 163.6,-45.8 393.6,184.2 					"/>
				</g>
			</g>
		</g>
		<g>
			<g>
				<g>
					<defs>
						<path id="SVGID_22_" d="M95.7,274.1c0-4.5,1.7-9,5.1-12.4c3.3-3.3,7.7-5.1,12.4-5.1s9.1,1.8,12.4,5.1l0,0
							c3.3,3.3,5.1,7.7,5.1,12.4c0,4.7-1.8,9.1-5.1,12.4c-6.8,6.8-18,6.8-24.8,0C97.4,283.1,95.7,278.6,95.7,274.1z M121.5,274.1
							c0-2.2-0.9-4.3-2.4-5.9l0,0c-1.6-1.6-3.6-2.4-5.9-2.4c-2.2,0-4.3,0.9-5.9,2.4c-3.2,3.2-3.2,8.5,0,11.7s8.5,3.2,11.7,0
							C120.7,278.4,121.5,276.3,121.5,274.1z"/>
					</defs>
					<clipPath id="SVGID_23_">
						<use xlink:href="#SVGID_22_"  style="overflow:visible;"/>
					</clipPath>
					
						<linearGradient id="SVGID_24_" gradientUnits="userSpaceOnUse" x1="167.05" y1="202.2" x2="167.05" y2="655.2" gradientTransform="matrix(1 0 0 1 0 -248)">
						<stop  offset="0" style="stop-color:#30CEE7"/>
						<stop  offset="1" style="stop-color:#8265FC"/>
					</linearGradient>
					<polygon class="st8" points="170.6,407.2 -59.5,177.2 163.6,-45.8 393.6,184.2 					"/>
				</g>
			</g>
		</g>
		<g>
			<g>
				<g>
					<defs>
						<path id="SVGID_25_" d="M145.6,224.3c0-4.7,1.8-9.1,5.1-12.4c6.8-6.8,18-6.8,24.8,0l0.1,0.1c3.3,3.3,5.1,7.7,5.1,12.3
							c0,4.7-1.8,9.1-5.1,12.4c-6.8,6.8-18,6.8-24.8,0l-0.1-0.1C147.4,233.3,145.6,228.9,145.6,224.3z M168.9,218.4
							c-3.2-3.2-8.4-3.2-11.7,0c-1.6,1.6-2.4,3.6-2.4,5.9c0,2.2,0.9,4.3,2.4,5.9l0.1,0.1c3.2,3.2,8.4,3.2,11.7,0
							c1.6-1.6,2.4-3.6,2.4-5.9S170.5,220,168.9,218.4L168.9,218.4z"/>
					</defs>
					<clipPath id="SVGID_26_">
						<use xlink:href="#SVGID_25_"  style="overflow:visible;"/>
					</clipPath>
					
						<linearGradient id="SVGID_27_" gradientUnits="userSpaceOnUse" x1="167.05" y1="202.2" x2="167.05" y2="655.2" gradientTransform="matrix(1 0 0 1 0 -248)">
						<stop  offset="0" style="stop-color:#30CEE7"/>
						<stop  offset="1" style="stop-color:#8265FC"/>
					</linearGradient>
					<polygon class="st9" points="170.6,407.2 -59.5,177.2 163.6,-45.8 393.6,184.2 					"/>
				</g>
			</g>
		</g>
		<g>
			<g>
				<g>
					<defs>
						<path id="SVGID_28_" d="M96.4,76.9c0-4.7,1.8-9.1,5.1-12.4c6.8-6.8,18-6.8,24.8,0s6.8,17.9,0.1,24.7l-0.1,0.1
							c-3.3,3.3-7.7,5.1-12.4,5.1c-4.7,0-9.1-1.8-12.4-5.1C98.3,86,96.4,81.6,96.4,76.9z M122.2,76.9c0-2.1-0.8-4.2-2.4-5.8
							c-3.2-3.2-8.5-3.2-11.7,0s-3.2,8.5,0,11.7s8.4,3.2,11.7,0l0,0C121.4,81.1,122.2,79,122.2,76.9z"/>
					</defs>
					<clipPath id="SVGID_29_">
						<use xlink:href="#SVGID_28_"  style="overflow:visible;"/>
					</clipPath>
					
						<linearGradient id="SVGID_30_" gradientUnits="userSpaceOnUse" x1="167.05" y1="202.2" x2="167.05" y2="655.2" gradientTransform="matrix(1 0 0 1 0 -248)">
						<stop  offset="0" style="stop-color:#30CEE7"/>
						<stop  offset="1" style="stop-color:#8265FC"/>
					</linearGradient>
					<polygon class="st10" points="170.6,407.2 -59.5,177.2 163.6,-45.8 393.6,184.2 					"/>
				</g>
			</g>
		</g>
		<g>
			<g>
				<g>
					<defs>
						<path id="SVGID_31_" d="M145.6,126c0-4.5,1.7-9,5.1-12.4c6.8-6.8,18-6.8,24.8,0s6.8,18,0,24.8c-6.8,6.8-18,6.8-24.8,0
							C147.3,135,145.6,130.5,145.6,126z M171.4,126c0-2.1-0.8-4.2-2.4-5.8c-3.2-3.2-8.5-3.2-11.7,0s-3.2,8.5,0,11.7s8.5,3.2,11.7,0
							C170.6,130.2,171.4,128.1,171.4,126z"/>
					</defs>
					<clipPath id="SVGID_32_">
						<use xlink:href="#SVGID_31_"  style="overflow:visible;"/>
					</clipPath>
					
						<linearGradient id="SVGID_33_" gradientUnits="userSpaceOnUse" x1="167.05" y1="202.2" x2="167.05" y2="655.2" gradientTransform="matrix(1 0 0 1 0 -248)">
						<stop  offset="0" style="stop-color:#30CEE7"/>
						<stop  offset="1" style="stop-color:#8265FC"/>
					</linearGradient>
					<polygon class="st11" points="170.6,407.2 -59.5,177.2 163.6,-45.8 393.6,184.2 					"/>
				</g>
			</g>
		</g>
		<g>
			<g>
				<g>
					<defs>
						<path id="SVGID_34_" d="M194.7,175.1c0-4.5,1.7-9,5.1-12.4c6.8-6.8,18-6.8,24.8,0l0,0c6.8,6.8,6.8,18,0,24.8
							s-17.9,6.8-24.7,0.1l-0.1-0.1C196.4,184.1,194.7,179.6,194.7,175.1z M220.5,175.1c0-2.1-0.8-4.2-2.4-5.9l0,0
							c-3.2-3.2-8.5-3.2-11.7,0c-1.6,1.6-2.4,3.6-2.4,5.9c0,2.2,0.8,4.3,2.4,5.8l0,0c3.2,3.2,8.5,3.2,11.7,0
							C219.7,179.4,220.5,177.3,220.5,175.1z"/>
					</defs>
					<clipPath id="SVGID_35_">
						<use xlink:href="#SVGID_34_"  style="overflow:visible;"/>
					</clipPath>
					
						<linearGradient id="SVGID_36_" gradientUnits="userSpaceOnUse" x1="167.05" y1="202.2" x2="167.05" y2="655.2" gradientTransform="matrix(1 0 0 1 0 -248)">
						<stop  offset="0" style="stop-color:#30CEE7"/>
						<stop  offset="1" style="stop-color:#8265FC"/>
					</linearGradient>
					<polygon class="st12" points="170.6,407.2 -59.5,177.2 163.6,-45.8 393.6,184.2 					"/>
				</g>
			</g>
		</g>
		<g>
			<g>
				<g>
					<defs>
						<path id="SVGID_37_" d="M141.4,27.8c0-5.4,2-10.8,6.1-14.9c8.2-8.2,21.5-8.2,29.7,0l0,0c4,4,6.2,9.2,6.2,14.9
							c0,5.6-2.2,10.9-6.2,14.8c-8.2,8.2-21.5,8.2-29.7,0l-0.1-0.1C143.4,38.5,141.4,33.1,141.4,27.8z M170.7,19.4
							c-4.7-4.6-12.1-4.6-16.6,0c-4.6,4.6-4.6,12,0,16.6l0.1,0.1c4.5,4.5,12,4.5,16.5-0.1c2.2-2.2,3.4-5.2,3.4-8.3
							C174.1,24.6,172.9,21.7,170.7,19.4L170.7,19.4z"/>
					</defs>
					<clipPath id="SVGID_38_">
						<use xlink:href="#SVGID_37_"  style="overflow:visible;"/>
					</clipPath>
					
						<linearGradient id="SVGID_39_" gradientUnits="userSpaceOnUse" x1="167.05" y1="202.2" x2="167.05" y2="655.2" gradientTransform="matrix(1 0 0 1 0 -248)">
						<stop  offset="0" style="stop-color:#30CEE7"/>
						<stop  offset="1" style="stop-color:#8265FC"/>
					</linearGradient>
					<polygon class="st13" points="170.6,407.2 -59.5,177.2 163.6,-45.8 393.6,184.2 					"/>
				</g>
			</g>
		</g>
		<g>
			<g>
				<g>
					<defs>
						<path id="SVGID_40_" d="M190.5,76.9c0-5.4,2-10.8,6.1-14.8c4-4,9.2-6.2,14.9-6.2c5.6,0,10.9,2.2,14.8,6.2l0.1,0.1
							c8.1,8.2,8.1,21.5-0.1,29.6c-8.2,8.2-21.5,8.2-29.7,0C192.6,87.6,190.5,82.2,190.5,76.9z M219.8,68.5
							c-2.2-2.2-5.1-3.4-8.2-3.4c-3.1,0-6.1,1.2-8.3,3.4c-4.6,4.6-4.6,12,0,16.6s12,4.6,16.6,0C224.4,80.6,224.4,73.1,219.8,68.5
							L219.8,68.5z"/>
					</defs>
					<clipPath id="SVGID_41_">
						<use xlink:href="#SVGID_40_"  style="overflow:visible;"/>
					</clipPath>
					
						<linearGradient id="SVGID_42_" gradientUnits="userSpaceOnUse" x1="167.05" y1="202.2" x2="167.05" y2="655.2" gradientTransform="matrix(1 0 0 1 0 -248)">
						<stop  offset="0" style="stop-color:#30CEE7"/>
						<stop  offset="1" style="stop-color:#8265FC"/>
					</linearGradient>
					<polygon class="st14" points="170.6,407.2 -59.5,177.2 163.6,-45.8 393.6,184.2 					"/>
				</g>
			</g>
		</g>
		<g>
			<g>
				<g>
					<defs>
						<path id="SVGID_43_" d="M239.7,126c0-5.6,2.2-10.9,6.2-14.8c4-4,9.2-6.2,14.8-6.2c5.6,0,10.8,2.2,14.8,6.1l0.1,0.1
							c8.2,8.2,8.2,21.5,0,29.7s-21.5,8.2-29.7,0l-0.1-0.1C241.8,136.8,239.7,131.6,239.7,126z M269,117.8L269,117.8
							c-2.3-2.3-5.2-3.5-8.4-3.5c-3.1,0-6.1,1.2-8.3,3.4c-2.2,2.2-3.4,5.2-3.4,8.3c0,3.1,1.2,6.1,3.4,8.3l0.1,0.1
							c4.6,4.5,12,4.5,16.6,0C273.5,129.8,273.6,122.3,269,117.8z"/>
					</defs>
					<clipPath id="SVGID_44_">
						<use xlink:href="#SVGID_43_"  style="overflow:visible;"/>
					</clipPath>
					
						<linearGradient id="SVGID_45_" gradientUnits="userSpaceOnUse" x1="167.05" y1="202.2" x2="167.05" y2="655.2" gradientTransform="matrix(1 0 0 1 0 -248)">
						<stop  offset="0" style="stop-color:#30CEE7"/>
						<stop  offset="1" style="stop-color:#8265FC"/>
					</linearGradient>
					<polygon class="st15" points="170.6,407.2 -59.5,177.2 163.6,-45.8 393.6,184.2 					"/>
				</g>
			</g>
		</g>
		<g>
			<g>
				<g>
					<defs>
						<path id="SVGID_46_" d="M50.1,126c0-3.6,1.4-7.2,4.1-9.9c5.5-5.5,14.4-5.5,19.9,0l0,0c5.5,5.5,5.5,14.4,0,19.9H74
							c-2.6,2.6-6.2,4.1-9.9,4.1c-3.8,0-7.3-1.5-9.9-4.1C51.4,133.2,50.1,129.6,50.1,126z M67.5,122.6c-1.9-1.9-4.9-1.9-6.8,0
							c-1.9,1.9-1.9,4.9,0,6.8c0.9,0.9,2.1,1.4,3.4,1.4c1.3,0,2.5-0.5,3.4-1.4l0.1-0.1C69.4,127.5,69.4,124.5,67.5,122.6L67.5,122.6
							z"/>
					</defs>
					<clipPath id="SVGID_47_">
						<use xlink:href="#SVGID_46_"  style="overflow:visible;"/>
					</clipPath>
					
						<linearGradient id="SVGID_48_" gradientUnits="userSpaceOnUse" x1="167.05" y1="202.2" x2="167.05" y2="655.2" gradientTransform="matrix(1 0 0 1 0 -248)">
						<stop  offset="0" style="stop-color:#30CEE7"/>
						<stop  offset="1" style="stop-color:#8265FC"/>
					</linearGradient>
					<polygon class="st16" points="170.6,407.2 -59.5,177.2 163.6,-45.8 393.6,184.2 					"/>
				</g>
			</g>
		</g>
	</g>
</g>
</svg>
